<svg xmlns="http://www.w3.org/2000/svg" xmlns:xlink="http://www.w3.org/1999/xlink" xmlns:lucid="lucid" width="321" height="556.31"><g transform="translate(-726.5457984579612 -155.29025176632)" lucid:page-tab-id="0_0"><path d="M-500-500h2500v1500H-500z" fill="#fff"/><path d="M746.55 243.75h-8a12 12 0 0 0-12 12V619.1a12 12 0 0 0 12 12h8" stroke="#333" fill="none"/><path d="M746.55 233.75v20M766.55 243.75h-20M746.55 621.1v20M766.55 631.1h-20" stroke="#333" fill="#fff"/><path d="M767.05 160.8a5 5 0 0 1 5-5h270a5 5 0 0 1 5 5v190a5 5 0 0 1-5 5h-270a5 5 0 0 1-5-5z" fill="#fff"/><path d="M767.05 195.8v-35a5 5 0 0 1 5-5h270a5 5 0 0 1 5 5v35" fill="#dedeff"/><path d="M767.05 160.8a5 5 0 0 1 5-5h270a5 5 0 0 1 5 5v190a5 5 0 0 1-5 5h-270a5 5 0 0 1-5-5zM767.05 195.8h280M907.05 195.8v160" stroke="#282c33" fill="none"/><use xlink:href="#a" transform="matrix(1,0,0,1,777.0457547963051,155.79025177359608) translate(0 23.6)"/><use xlink:href="#b" transform="matrix(1,0,0,1,772.0457547963051,198.29025177359608) translate(0 17.1)"/><use xlink:href="#c" transform="matrix(1,0,0,1,772.0457547963051,198.29025177359608) translate(84.9 17.1)"/><use xlink:href="#d" transform="matrix(1,0,0,1,912.0457547963051,198.29025177359608) translate(0 17.1)"/><use xlink:href="#e" transform="matrix(1,0,0,1,772.0457547963051,230.29025177359608) translate(0 17.1)"/><use xlink:href="#d" transform="matrix(1,0,0,1,912.0457547963051,230.29025177359608) translate(0 17.1)"/><use xlink:href="#f" transform="matrix(1,0,0,1,772.0457547963051,262.2902517735961) translate(0 17.1)"/><use xlink:href="#d" transform="matrix(1,0,0,1,912.0457547963051,262.2902517735961) translate(0 17.1)"/><use xlink:href="#g" transform="matrix(1,0,0,1,772.0457547963051,294.2902517735961) translate(0 17.1)"/><use xlink:href="#d" transform="matrix(1,0,0,1,912.0457547963051,294.2902517735961) translate(0 17.1)"/><use xlink:href="#g" transform="matrix(1,0,0,1,772.0457547963051,326.2902517735961) translate(0 17.1)"/><use xlink:href="#d" transform="matrix(1,0,0,1,912.0457547963051,326.2902517735961) translate(0 17.1)"/><path d="M767.05 548.1a5 5 0 0 1 5-5h249.5a5 5 0 0 1 5 5v158a5 5 0 0 1-5 5h-249.5a5 5 0 0 1-5-5z" fill="#fff"/><path d="M767.05 583.1v-35a5 5 0 0 1 5-5h249.5a5 5 0 0 1 5 5v35" fill="#dedeff"/><path d="M767.05 548.1a5 5 0 0 1 5-5h249.5a5 5 0 0 1 5 5v158a5 5 0 0 1-5 5h-249.5a5 5 0 0 1-5-5zM767.05 583.1h259.5M905.33 583.1v128" stroke="#282c33" fill="none"/><use xlink:href="#a" transform="matrix(1,0,0,1,777.0457547963051,543.1040595060007) translate(0 23.6)"/><use xlink:href="#g" transform="matrix(1,0,0,1,772.0457547963051,585.6040595060007) translate(0 17.1)"/><use xlink:href="#d" transform="matrix(1,0,0,1,910.3255893721666,585.6040595060007) translate(0 17.1)"/><use xlink:href="#g" transform="matrix(1,0,0,1,772.0457547963051,617.6040595060007) translate(0 17.1)"/><use xlink:href="#d" transform="matrix(1,0,0,1,910.3255893721666,617.6040595060007) translate(0 17.1)"/><use xlink:href="#g" transform="matrix(1,0,0,1,772.0457547963051,649.6040595060007) translate(0 17.1)"/><use xlink:href="#d" transform="matrix(1,0,0,1,910.3255893721666,649.6040595060007) translate(0 17.1)"/><use xlink:href="#g" transform="matrix(1,0,0,1,772.0457547963051,681.6040595060007) translate(0 17.1)"/><use xlink:href="#d" transform="matrix(1,0,0,1,910.3255893721666,681.6040595060007) translate(0 17.1)"/><defs><path fill="#333" d="M30 0v-248h187v28H63v79h144v27H63v87h162V0H30" id="h"/><path fill="#333" d="M117-194c89-4 53 116 60 194h-32v-121c0-31-8-49-39-48C34-167 62-67 57 0H25l-1-190h30c1 10-1 24 2 32 11-22 29-35 61-36" id="i"/><path fill="#333" d="M59-47c-2 24 18 29 38 22v24C64 9 27 4 27-40v-127H5v-23h24l9-43h21v43h35v23H59v120" id="j"/><path fill="#333" d="M24-231v-30h32v30H24zM24 0v-190h32V0H24" id="k"/><path fill="#333" d="M179-190L93 31C79 59 56 82 12 73V49c39 6 53-20 64-50L1-190h34L92-34l54-156h33" id="l"/><g id="a"><use transform="matrix(0.05,0,0,0.05,0,0)" xlink:href="#h"/><use transform="matrix(0.05,0,0,0.05,12,0)" xlink:href="#i"/><use transform="matrix(0.05,0,0,0.05,22,0)" xlink:href="#j"/><use transform="matrix(0.05,0,0,0.05,27,0)" xlink:href="#k"/><use transform="matrix(0.05,0,0,0.05,30.950000000000003,0)" xlink:href="#j"/><use transform="matrix(0.05,0,0,0.05,35.95,0)" xlink:href="#l"/></g><path fill="#333" d="M210-169c-67 3-38 105-44 169h-31v-121c0-29-5-50-35-48C34-165 62-65 56 0H25l-1-190h30c1 10-1 24 2 32 10-44 99-50 107 0 11-21 27-35 58-36 85-2 47 119 55 194h-31v-121c0-29-5-49-35-48" id="m"/><path fill="#333" d="M115-194c55 1 70 41 70 98S169 2 115 4C84 4 66-9 55-30l1 105H24l-1-265h31l2 30c10-21 28-34 59-34zm-8 174c40 0 45-34 45-75s-6-73-45-74c-42 0-51 32-51 76 0 43 10 73 51 73" id="n"/><path fill="#333" d="M24 0v-261h32V0H24" id="o"/><path fill="#333" d="M100-194c62-1 85 37 85 99 1 63-27 99-86 99S16-35 15-95c0-66 28-99 85-99zM99-20c44 1 53-31 53-75 0-43-8-75-51-75s-53 32-53 75 10 74 51 75" id="p"/><path fill="#333" d="M100-194c63 0 86 42 84 106H49c0 40 14 67 53 68 26 1 43-12 49-29l28 8c-11 28-37 45-77 45C44 4 14-33 15-96c1-61 26-98 85-98zm52 81c6-60-76-77-97-28-3 7-6 17-6 28h103" id="q"/><g id="b"><use transform="matrix(0.05,0,0,0.05,0,0)" xlink:href="#h"/><use transform="matrix(0.05,0,0,0.05,12,0)" xlink:href="#m"/><use transform="matrix(0.05,0,0,0.05,26.950000000000003,0)" xlink:href="#n"/><use transform="matrix(0.05,0,0,0.05,36.95,0)" xlink:href="#o"/><use transform="matrix(0.05,0,0,0.05,40.900000000000006,0)" xlink:href="#p"/><use transform="matrix(0.05,0,0,0.05,50.900000000000006,0)" xlink:href="#l"/><use transform="matrix(0.05,0,0,0.05,59.900000000000006,0)" xlink:href="#q"/><use transform="matrix(0.05,0,0,0.05,69.9,0)" xlink:href="#q"/></g><path fill="#333" d="M33 0v-248h34V0H33" id="r"/><path fill="#333" d="M30-248c118-7 216 8 213 122C240-48 200 0 122 0H30v-248zM63-27c89 8 146-16 146-99s-60-101-146-95v194" id="s"/><g id="c"><use transform="matrix(0.05,0,0,0.05,0,0)" xlink:href="#r"/><use transform="matrix(0.05,0,0,0.05,5,0)" xlink:href="#s"/></g><path fill="#333" d="M127-220V0H93v-220H8v-28h204v28h-85" id="t"/><g id="d"><use transform="matrix(0.05,0,0,0.05,0,0)" xlink:href="#t"/><use transform="matrix(0.05,0,0,0.05,9.950000000000001,0)" xlink:href="#l"/><use transform="matrix(0.05,0,0,0.05,18.950000000000003,0)" xlink:href="#n"/><use transform="matrix(0.05,0,0,0.05,28.950000000000003,0)" xlink:href="#q"/></g><path fill="#333" d="M190 0L58-211 59 0H30v-248h39L202-35l-2-213h31V0h-41" id="u"/><path fill="#333" d="M141-36C126-15 110 5 73 4 37 3 15-17 15-53c-1-64 63-63 125-63 3-35-9-54-41-54-24 1-41 7-42 31l-33-3c5-37 33-52 76-52 45 0 72 20 72 64v82c-1 20 7 32 28 27v20c-31 9-61-2-59-35zM48-53c0 20 12 33 32 33 41-3 63-29 60-74-43 2-92-5-92 41" id="v"/><g id="e"><use transform="matrix(0.05,0,0,0.05,0,0)" xlink:href="#u"/><use transform="matrix(0.05,0,0,0.05,12.950000000000001,0)" xlink:href="#v"/><use transform="matrix(0.05,0,0,0.05,22.950000000000003,0)" xlink:href="#m"/><use transform="matrix(0.05,0,0,0.05,37.900000000000006,0)" xlink:href="#q"/></g><path fill="#333" d="M205 0l-28-72H64L36 0H1l101-248h38L239 0h-34zm-38-99l-47-123c-12 45-31 82-46 123h93" id="w"/><path fill="#333" d="M85-194c31 0 48 13 60 33l-1-100h32l1 261h-30c-2-10 0-23-3-31C134-8 116 4 85 4 32 4 16-35 15-94c0-66 23-100 70-100zm9 24c-40 0-46 34-46 75 0 40 6 74 45 74 42 0 51-32 51-76 0-42-9-74-50-73" id="x"/><path fill="#333" d="M114-163C36-179 61-72 57 0H25l-1-190h30c1 12-1 29 2 39 6-27 23-49 58-41v29" id="y"/><path fill="#333" d="M135-143c-3-34-86-38-87 0 15 53 115 12 119 90S17 21 10-45l28-5c4 36 97 45 98 0-10-56-113-15-118-90-4-57 82-63 122-42 12 7 21 19 24 35" id="z"/><g id="f"><use transform="matrix(0.05,0,0,0.05,0,0)" xlink:href="#w"/><use transform="matrix(0.05,0,0,0.05,12,0)" xlink:href="#x"/><use transform="matrix(0.05,0,0,0.05,22,0)" xlink:href="#x"/><use transform="matrix(0.05,0,0,0.05,32,0)" xlink:href="#y"/><use transform="matrix(0.05,0,0,0.05,37.95,0)" xlink:href="#q"/><use transform="matrix(0.05,0,0,0.05,47.95,0)" xlink:href="#z"/><use transform="matrix(0.05,0,0,0.05,56.95,0)" xlink:href="#z"/></g><path fill="#333" d="M63-220v92h138v28H63V0H30v-248h175v28H63" id="A"/><g id="g"><use transform="matrix(0.05,0,0,0.05,0,0)" xlink:href="#A"/><use transform="matrix(0.05,0,0,0.05,10.950000000000001,0)" xlink:href="#k"/><use transform="matrix(0.05,0,0,0.05,14.9,0)" xlink:href="#q"/><use transform="matrix(0.05,0,0,0.05,24.900000000000002,0)" xlink:href="#o"/><use transform="matrix(0.05,0,0,0.05,28.85,0)" xlink:href="#x"/></g></defs></g></svg>